<svg width="176" height="176" viewBox="0 0 176 176" fill="none" xmlns="http://www.w3.org/2000/svg">
<g clip-path="url(#clip0_269_2)">
<path d="M12.8262 42.2285C-0.154382 68.0032 4.11556 100.243 25.6367 121.764C39.5006 135.627 57.8122 142.332 75.9785 141.878C77.5286 148.61 80.9217 154.597 86.1621 159.838C93.6038 167.28 102.55 171 113 171C114.787 171 116.529 170.887 118.228 170.67C108.801 174.118 98.6204 176 88 176C39.3989 176 0 136.601 0 88C3.55632e-07 71.2345 4.68895 55.5643 12.8262 42.2285Z" fill="#FEE086"/>
<path d="M151 26.5586C166.469 42.4177 176 64.0959 176 88C176 116.223 162.713 141.341 142.054 157.444C148.016 150.501 151 142.354 151 133V26.5586Z" fill="#FEE086"/>
<path d="M88 0C98.9111 0 109.358 1.98635 119 5.61621V20.9531C98.9806 3.7528 71.41 -0.0420923 48.0576 9.56641C60.0446 3.44981 73.6194 3.05008e-07 88 0Z" fill="#FEE086"/>
<path d="M132.009 154.837C126.633 159.611 120.298 162 113 162C105.025 162 98.1977 159.149 92.5186 153.448C90.2396 151.161 88.4181 148.687 87.0537 146.028L105.127 127.955L132.009 154.837ZM128 9.61523C133.142 12.2027 137.496 15.0075 142 18.5127V132.889C142 140.23 139.61 146.601 134.833 152.005L107.955 125.127L126.129 106.953C126.783 107.288 127.413 107.64 128 108V9.61523ZM102.299 125.127L85.3926 142.033C84.4643 139.173 84 136.125 84 132.889C84 125.6 86.3534 119.267 91.0605 113.889L102.299 125.127ZM113 103.777C115.779 103.777 118.347 104.111 120.703 104.778C121.18 104.913 121.674 105.072 122.177 105.249L105.127 122.299L93.873 111.045C99.2736 106.201 105.649 103.777 113 103.777Z" fill="#FEE086"/>
</g>
<defs>
<clipPath id="clip0_269_2">
<rect width="176" height="176" fill="white"/>
</clipPath>
</defs>
</svg>
