<svg width="215" height="215" viewBox="0 0 215 215" fill="none" xmlns="http://www.w3.org/2000/svg">
<path d="M15.6683 51.5864C-0.188405 83.0725 5.02702 122.456 31.317 148.746C48.076 165.505 70.1558 173.698 92.1187 173.33C94.6952 179.482 98.5363 185.121 103.644 190.247C113.95 200.59 126.341 205.762 140.814 205.762C145.846 205.762 150.627 205.136 155.155 203.885C140.793 211 124.614 215 107.5 215C48.1294 215 2.77106e-05 166.871 0 107.5C0 87.0196 5.72808 67.8773 15.6683 51.5864Z" fill="#FEE086"/>
<path d="M193.444 42.9165C206.977 60.8976 215 83.2617 215 107.5C215 136.748 203.319 163.267 184.368 182.649C190.418 173.975 193.444 164.074 193.444 152.945V42.9165Z" fill="#FEE086"/>
<path d="M107.5 0C124.47 0 140.522 3.93363 154.794 10.9368V35.0791C153.308 33.3293 151.741 31.6252 150.089 29.9736C125.384 5.26866 89.1171 -0.827191 58.7062 11.6856C73.3495 4.21365 89.9328 0 107.5 0Z" fill="#FEE086"/>
<path d="M168.981 186.827C161.181 193.291 152.072 196.523 141.654 196.523C129.721 196.523 119.505 192.284 111.008 183.804C108.278 181.08 105.988 178.179 104.135 175.102L130.695 148.542L168.981 186.827Z" fill="#FEE086"/>
<path d="M163.35 15.6297C174.268 22.6757 178.047 26.0355 185.045 33.0663V153.225C185.045 163.816 181.684 173.051 174.961 180.93L136.634 142.603L163.35 115.875V15.6297Z" fill="#FEE086"/>
<path d="M124.756 142.602L100.392 166.967C98.9718 162.673 98.2617 158.092 98.2617 153.225C98.2617 142.797 101.52 133.683 108.038 125.884L124.756 142.602Z" fill="#FEE086"/>
<path d="M141.654 109.926C145.812 109.926 149.654 110.422 153.18 111.415C153.888 111.614 154.59 111.834 155.287 112.073L130.695 136.664L113.96 119.929C121.84 113.26 131.072 109.926 141.654 109.926Z" fill="#FEE086"/>
</svg>
